<?xml version="1.0" encoding="UTF-8"?>
<svg version="1.1" xmlns="http://www.w3.org/2000/svg" width="500" height="500">
<path d="M0 0 C165 0 330 0 500 0 C500 165 500 330 500 500 C335 500 170 500 0 500 C0 335 0 170 0 0 Z " fill="#FEFEFE" transform="translate(0,0)"/>
<path d="M0 0 C1.36427124 -0.00430527 1.36427124 -0.00430527 2.75610352 -0.00869751 C4.67236964 -0.01073216 6.58865682 -0.00524437 8.50488281 0.00732422 C11.42820943 0.02338645 14.35015359 0.00745516 17.2734375 -0.01171875 C19.14062803 -0.00973621 21.00781771 -0.00589232 22.875 0 C23.74390869 -0.00607269 24.61281738 -0.01214539 25.50805664 -0.0184021 C31.69083321 0.05280813 35.73918601 1.35647016 40.75 5.1484375 C42.99526705 8.1421269 43.15462634 10.7210799 43.4375 14.3984375 C44.159375 14.6046875 44.88125 14.8109375 45.625 15.0234375 C49.35494054 16.84696399 51.08466615 18.99989972 53.4375 22.3984375 C53.6025 23.4709375 53.7675 24.5434375 53.9375 25.6484375 C54.1025 26.5559375 54.2675 27.4634375 54.4375 28.3984375 C56.73284258 29.53389312 56.73284258 29.53389312 59.4375 30.3984375 C63.39236894 33.89343796 66.17092325 36.71698898 66.703125 42.0703125 C66.65797842 50.96418781 65.74329174 59.61728755 64.4375 68.3984375 C64.2926416 69.39149902 64.1477832 70.38456055 63.99853516 71.40771484 C63.5108614 74.71902459 63.00799394 78.02768744 62.5 81.3359375 C62.34241211 82.39006836 62.18482422 83.44419922 62.02246094 84.53027344 C59.28413071 101.85473942 59.28413071 101.85473942 54.0625 105.8359375 C53.49789062 106.28839844 52.93328125 106.74085938 52.3515625 107.20703125 C47.8643208 110.00011027 44.08871992 110.6521754 38.83056641 110.6730957 C37.51214752 110.68262772 36.19372864 110.69215973 34.83535767 110.70198059 C33.40325901 110.70171912 31.97116033 110.70078186 30.5390625 110.69921875 C29.06082032 110.70310916 27.58257924 110.70744455 26.1043396 110.71220398 C23.00930149 110.71965448 19.91437747 110.71938374 16.81933594 110.71411133 C12.86620981 110.70832255 8.91355311 110.72523866 4.96050453 110.748456 C1.90802307 110.76323757 -1.14434654 110.76405898 -4.19685745 110.76094627 C-5.65361077 110.76145741 -7.1103707 110.76665596 -8.56708908 110.77675819 C-22.56559242 110.86191805 -22.56559242 110.86191805 -28.5625 107.3984375 C-29.449375 106.9034375 -30.33625 106.4084375 -31.25 105.8984375 C-38.35572015 98.21657788 -38.82341576 86.03343559 -40.19042969 76.08398438 C-40.58109735 73.26420469 -40.99630057 70.44869767 -41.4140625 67.6328125 C-41.69372147 65.7006672 -41.97238736 63.76837788 -42.25 61.8359375 C-42.38156494 60.94479248 -42.51312988 60.05364746 -42.64868164 59.13549805 C-45.15079147 41.10583644 -45.15079147 41.10583644 -39.5625 33.3984375 C-37.65093933 31.34712827 -35.91407831 29.99951209 -33.5625 28.3984375 C-32.5725 28.3984375 -31.5825 28.3984375 -30.5625 28.3984375 C-30.541875 27.2021875 -30.52125 26.0059375 -30.5 24.7734375 C-30.05778006 21.00786772 -28.97946462 19.37388607 -26.125 16.8984375 C-22.94015957 14.3984375 -22.94015957 14.3984375 -20.5625 14.3984375 C-20.48 13.5115625 -20.3975 12.6246875 -20.3125 11.7109375 C-19.21746592 6.87453696 -17.17761738 4.42553572 -13.015625 1.77880859 C-8.55099585 -0.00590671 -4.76165814 -0.03327863 0 0 Z " fill="#FCFCFD" transform="translate(99.5625,182.6015625)"/>
<path d="M0 0 C1.36427124 -0.00430527 1.36427124 -0.00430527 2.75610352 -0.00869751 C4.67236964 -0.01073216 6.58865682 -0.00524437 8.50488281 0.00732422 C11.42820943 0.02338645 14.35015359 0.00745516 17.2734375 -0.01171875 C19.14062803 -0.00973621 21.00781771 -0.00589232 22.875 0 C23.74390869 -0.00607269 24.61281738 -0.01214539 25.50805664 -0.0184021 C31.69083321 0.05280813 35.73918601 1.35647016 40.75 5.1484375 C42.99526705 8.1421269 43.15462634 10.7210799 43.4375 14.3984375 C44.159375 14.6046875 44.88125 14.8109375 45.625 15.0234375 C49.35494054 16.84696399 51.08466615 18.99989972 53.4375 22.3984375 C53.6025 23.4709375 53.7675 24.5434375 53.9375 25.6484375 C54.1025 26.5559375 54.2675 27.4634375 54.4375 28.3984375 C56.73284258 29.53389312 56.73284258 29.53389312 59.4375 30.3984375 C63.39236894 33.89343796 66.17092325 36.71698898 66.703125 42.0703125 C66.65797842 50.96418781 65.74329174 59.61728755 64.4375 68.3984375 C64.2926416 69.39149902 64.1477832 70.38456055 63.99853516 71.40771484 C63.5108614 74.71902459 63.00799394 78.02768744 62.5 81.3359375 C62.34241211 82.39006836 62.18482422 83.44419922 62.02246094 84.53027344 C59.28413071 101.85473942 59.28413071 101.85473942 54.0625 105.8359375 C53.49789062 106.28839844 52.93328125 106.74085938 52.3515625 107.20703125 C47.8643208 110.00011027 44.08871992 110.6521754 38.83056641 110.6730957 C37.51214752 110.68262772 36.19372864 110.69215973 34.83535767 110.70198059 C33.40325901 110.70171912 31.97116033 110.70078186 30.5390625 110.69921875 C29.06082032 110.70310916 27.58257924 110.70744455 26.1043396 110.71220398 C23.00930149 110.71965448 19.91437747 110.71938374 16.81933594 110.71411133 C12.86620981 110.70832255 8.91355311 110.72523866 4.96050453 110.748456 C1.90802307 110.76323757 -1.14434654 110.76405898 -4.19685745 110.76094627 C-5.65361077 110.76145741 -7.1103707 110.76665596 -8.56708908 110.77675819 C-22.56559242 110.86191805 -22.56559242 110.86191805 -28.5625 107.3984375 C-29.449375 106.9034375 -30.33625 106.4084375 -31.25 105.8984375 C-38.35572015 98.21657788 -38.82341576 86.03343559 -40.19042969 76.08398438 C-40.58109735 73.26420469 -40.99630057 70.44869767 -41.4140625 67.6328125 C-41.69372147 65.7006672 -41.97238736 63.76837788 -42.25 61.8359375 C-42.38156494 60.94479248 -42.51312988 60.05364746 -42.64868164 59.13549805 C-45.15079147 41.10583644 -45.15079147 41.10583644 -39.5625 33.3984375 C-37.65093933 31.34712827 -35.91407831 29.99951209 -33.5625 28.3984375 C-32.5725 28.3984375 -31.5825 28.3984375 -30.5625 28.3984375 C-30.541875 27.2021875 -30.52125 26.0059375 -30.5 24.7734375 C-30.05778006 21.00786772 -28.97946462 19.37388607 -26.125 16.8984375 C-22.94015957 14.3984375 -22.94015957 14.3984375 -20.5625 14.3984375 C-20.48 13.5115625 -20.3975 12.6246875 -20.3125 11.7109375 C-19.21746592 6.87453696 -17.17761738 4.42553572 -13.015625 1.77880859 C-8.55099585 -0.00590671 -4.76165814 -0.03327863 0 0 Z M-34.5625 38.3984375 C-38.90194651 47.07733051 -34.58179791 62.35870474 -33.21875 71.56665039 C-32.81003724 74.35272539 -32.4278932 77.1416593 -32.046875 79.93164062 C-31.78805497 81.72158576 -31.52769337 83.51130882 -31.265625 85.30078125 C-31.15502747 86.12585678 -31.04442993 86.95093231 -30.93048096 87.80101013 C-30.15273929 92.85368359 -28.99480408 96.42105193 -25.5625 100.3984375 C-21.69160559 102.37527525 -18.4365167 102.65974959 -14.12329102 102.68896484 C-12.84168594 102.70172455 -11.56008087 102.71448425 -10.23963928 102.72763062 C-8.84856315 102.73068812 -7.45748498 102.73291596 -6.06640625 102.734375 C-4.63060881 102.7408071 -3.19481267 102.74753577 -1.75901794 102.75454712 C1.24605345 102.76650101 4.25101004 102.77022981 7.25610352 102.76904297 C11.09735028 102.76883967 14.93785807 102.79616003 18.77892971 102.83058739 C21.74302012 102.85287634 24.70693309 102.85687995 27.67109871 102.85582352 C29.08682875 102.85817578 30.50256395 102.86697823 31.91821098 102.88248825 C33.90167508 102.90218843 35.88535731 102.89377737 37.86889648 102.88427734 C38.99520981 102.88712738 40.12152313 102.88997742 41.28196716 102.89291382 C45.20530273 102.27812176 47.36195878 100.87213664 50.4375 98.3984375 C53.08865944 93.58328048 54.10509223 88.76165847 54.82421875 83.3671875 C54.93095413 82.61360962 55.03768951 81.86003174 55.1476593 81.08361816 C55.3700197 79.49424842 55.58740665 77.90417567 55.80004883 76.31347656 C56.12067328 73.93059369 56.46243599 71.55145172 56.80664062 69.171875 C57.83856668 61.82447743 58.68181683 54.4756081 58.89453125 47.0546875 C58.95024292 45.30381836 58.95024292 45.30381836 59.00708008 43.51757812 C58.25517012 39.39996065 56.68290137 37.9581907 53.4375 35.3984375 C49.75087275 34.05264157 45.90139375 34.2364367 42.02612305 34.22143555 C41.28575806 34.21486435 40.54539307 34.20829315 39.78259277 34.20152283 C37.33813364 34.18184988 34.89373574 34.17014121 32.44921875 34.16015625 C31.61211679 34.15608072 30.77501484 34.1520052 29.91254616 34.14780617 C25.48247146 34.12697189 21.0524275 34.11265828 16.62231445 34.10327148 C12.05593346 34.09220725 7.49003977 34.05779985 2.92383099 34.01809978 C-0.59615462 33.9919114 -4.11602441 33.98357774 -7.63609886 33.97999001 C-9.31895428 33.97513048 -11.00180475 33.96353456 -12.68456459 33.94495201 C-15.04441247 33.92051023 -17.40300281 33.92153406 -19.76293945 33.9284668 C-20.45149521 33.91565674 -21.14005096 33.90284668 -21.84947205 33.88964844 C-27.21110698 33.94677348 -30.23877596 35.45182574 -34.5625 38.3984375 Z " fill="#283250" transform="translate(99.5625,182.6015625)"/>
<path d="M0 0 C0.78375 0.495 1.5675 0.99 2.375 1.5 C2.375 0.51 2.375 -0.48 2.375 -1.5 C5.345 -1.5 8.315 -1.5 11.375 -1.5 C11.47461729 2.91074704 11.54681669 7.32088095 11.59472656 11.73242188 C11.61471919 13.2299339 11.64192299 14.72736908 11.67675781 16.22460938 C12.02938559 31.78171715 12.02938559 31.78171715 7.375 38.5 C1.68669223 42.90843852 -4.67119992 43.07779388 -11.625 42.5 C-14.76562101 41.82031336 -17.80314302 41.06198461 -20.625 39.5 C-21.12 38.015 -21.12 38.015 -21.625 36.5 C-20.1875 33.8125 -20.1875 33.8125 -18.625 31.5 C-17.55958984 31.98339844 -17.55958984 31.98339844 -16.47265625 32.4765625 C-11.8982492 34.12058808 -7.42201094 34.1125414 -2.625 33.5 C0.13703675 31.9130391 0.13703675 31.9130391 1.375 29.5 C1.375 28.51 1.375 27.52 1.375 26.5 C0.82585937 26.82226562 0.27671875 27.14453125 -0.2890625 27.4765625 C-4.5614485 29.34841055 -9.0570101 29.04286257 -13.625 28.5 C-18.77353681 25.9257316 -21.807008 22.95397599 -23.625 17.5 C-24.28222003 12.65534951 -24.24088962 8.75538596 -21.4375 4.625 C-15.6130597 -2.34814936 -8.33501561 -3.44897198 0 0 Z " fill="#212B4C" transform="translate(293.625,249.5)"/>
<path d="M0 0 C0.639375 0.495 1.27875 0.99 1.9375 1.5 C2.2675 0.51 2.5975 -0.48 2.9375 -1.5 C5.9075 -1.5 8.8775 -1.5 11.9375 -1.5 C12.03711729 2.91074704 12.10931669 7.32088095 12.15722656 11.73242188 C12.17721919 13.2299339 12.20442299 14.72736908 12.23925781 16.22460938 C12.59443999 31.89441136 12.59443999 31.89441136 7.9375 38.5 C2.75268003 42.60461912 -2.58606569 43.10410981 -9.07421875 42.90625 C-13.51711155 42.30224889 -17.18333406 40.69427568 -21.0625 38.5 C-20.4025 36.52 -19.7425 34.54 -19.0625 32.5 C-16.0625 32.5 -16.0625 32.5 -13.0625 33.5 C-11.06800155 33.69390957 -9.065386 33.81118255 -7.0625 33.875 C-6.010625 33.92398438 -4.95875 33.97296875 -3.875 34.0234375 C-0.87033422 33.78653871 -0.87033422 33.78653871 0.75 31.1640625 C1.99835175 28.47978961 1.99835175 28.47978961 2.9375 25.5 C2.339375 25.995 1.74125 26.49 1.125 27 C-3.5873084 29.21755689 -7.93999911 29.17044497 -13.0625 28.5 C-17.92151474 26.20301121 -20.73157123 23.34115976 -23.0625 18.5 C-23.96915663 13.37357697 -23.8379311 8.99293197 -20.9375 4.5625 C-15.51306737 -1.8619677 -7.56396053 -3.70479699 0 0 Z " fill="#1E2A4C" transform="translate(449.0625,249.5)"/>
<path d="M0 0 C1.36427124 -0.00430527 1.36427124 -0.00430527 2.75610352 -0.00869751 C4.67236964 -0.01073216 6.58865682 -0.00524437 8.50488281 0.00732422 C11.42820943 0.02338645 14.35015359 0.00745516 17.2734375 -0.01171875 C19.14062803 -0.00973621 21.00781771 -0.00589232 22.875 0 C23.74390869 -0.00607269 24.61281738 -0.01214539 25.50805664 -0.0184021 C30.56033067 0.03978754 34.06013747 0.59811313 38.4375 3.3984375 C40.3125 5.5859375 40.3125 5.5859375 41.4375 7.3984375 C39.77083333 9.06510417 38.10416667 10.73177083 36.4375 12.3984375 C36.4375 13.0584375 36.4375 13.7184375 36.4375 14.3984375 C35.5830555 14.41056778 35.5830555 14.41056778 34.71134949 14.42294312 C28.79032812 14.5089042 22.86964481 14.60840389 16.94897461 14.71582031 C14.73842032 14.75413767 12.52780308 14.78898564 10.31713867 14.8203125 C7.14218629 14.86590302 3.96766828 14.92390753 0.79296875 14.984375 C-0.19774124 14.99592621 -1.18845123 15.00747742 -2.20918274 15.01937866 C-3.59027473 15.0491832 -3.59027473 15.0491832 -4.99926758 15.07958984 C-5.8097908 15.09291351 -6.62031403 15.10623718 -7.45539856 15.1199646 C-9.86350191 15.28067527 -9.86350191 15.28067527 -12.5625 17.3984375 C-12.8925 18.3884375 -13.2225 19.3784375 -13.5625 20.3984375 C-12.92658432 20.39177567 -12.29066864 20.38511383 -11.63548279 20.37825012 C-5.0004483 20.31173803 1.63449103 20.26657094 8.26977539 20.23364258 C10.7440984 20.2185819 13.21839482 20.19812925 15.69262695 20.17211914 C19.2547869 20.1356172 22.816593 20.11868346 26.37890625 20.10546875 C27.48021378 20.08998489 28.5815213 20.07450104 29.71620178 20.05854797 C35.69712231 20.05724555 40.23471088 20.30661054 45.4375 23.3984375 C45.9325 24.8834375 45.9325 24.8834375 46.4375 26.3984375 C23.6675 26.3984375 0.8975 26.3984375 -22.5625 26.3984375 C-21.5625 18.3984375 -21.5625 18.3984375 -19.5625 16.3984375 C-19.60375 15.1403125 -19.645 13.8821875 -19.6875 12.5859375 C-19.75694987 9.39124341 -19.60872479 8.47844195 -17.9375 5.5859375 C-12.34594768 0.43582353 -7.25376871 -0.05069567 0 0 Z " fill="#293352" transform="translate(99.5625,182.6015625)"/>
<path d="M0 0 C4.33845811 2.49923347 6.86752315 5.86579969 8.6875 10.5 C9.71367132 15.76899503 8.65129725 20.05430413 5.6875 24.5 C1.14739968 29.0897189 -2.6506991 30.65790074 -9.0625 30.8125 C-14.81397885 30.7430377 -17.83621368 30.13698264 -22.3125 26.5 C-26.05096471 21.70709653 -26.96593382 17.92415138 -26.69921875 11.86328125 C-25.91037926 7.0425955 -23.26076487 4.35575122 -19.75 1.1875 C-13.99914698 -2.79385978 -6.33446211 -2.73369373 0 0 Z " fill="#252E4E" transform="translate(373.3125,249.5)"/>
<path d="M0 0 C-0.66 2.31 -1.32 4.62 -2 7 C-2.94875 6.835 -3.8975 6.67 -4.875 6.5 C-13.13044322 5.2434373 -13.13044322 5.2434373 -21 7 C-20.67 8.65 -20.34 10.3 -20 12 C-18.90300781 12.31453125 -17.80601562 12.6290625 -16.67578125 12.953125 C-15.22117532 13.3848145 -13.76675801 13.81713991 -12.3125 14.25 C-11.59126953 14.45496094 -10.87003906 14.65992188 -10.12695312 14.87109375 C-5.66056808 16.2171276 -2.44411873 17.70734347 1 21 C2.62045324 24.24090647 2.56101303 27.49693024 2 31 C-0.80496037 35.64571562 -3.59683024 37.90844223 -8.7734375 39.52734375 C-17.3170803 41.34099424 -24.09604187 39.36594415 -32 36 C-31.47731534 33.23723823 -30.89130413 30.6739124 -30 28 C-27.65237261 28.54176017 -25.50446196 29.19145788 -23.25 30.0625 C-18.36648585 31.47120601 -13.88899443 31.62966481 -9 30 C-8.67 28.35 -8.34 26.7 -8 25 C-8.7734375 24.82984375 -9.546875 24.6596875 -10.34375 24.484375 C-26.53216638 20.71776327 -26.53216638 20.71776327 -31 15 C-31.87274367 10.36109222 -31.65657334 6.23435788 -29.4375 2.0625 C-20.8125252 -5.2355556 -9.85693941 -4.54935665 0 0 Z " fill="#232D4D" transform="translate(206,241)"/>
<path d="M0 0 C3.125 0.375 3.125 0.375 6 1 C6.3403125 2.5778125 6.3403125 2.5778125 6.6875 4.1875 C7.86175081 8.22398715 9.68176594 10.34541275 13 13 C14.23621695 13.53316756 15.48720459 14.03325837 16.75 14.5 C20 16 20 16 21.0625 18.5625 C21 21 21 21 19 23 C13.6816231 22.74265918 11.19816937 22.28478535 7 19 C6.9906543 19.60473145 6.98130859 20.20946289 6.97167969 20.83251953 C6.91768278 23.5974788 6.83409606 26.36079906 6.75 29.125 C6.72873047 30.55199219 6.72873047 30.55199219 6.70703125 32.0078125 C6.50082999 37.9464087 5.90358794 41.44581408 2 46 C-1.0051848 48.36121663 -4.26488438 48.41860637 -8.03515625 48.3203125 C-11.93638935 47.68432619 -14.08360383 45.26549947 -16.3125 42.1875 C-17.36736011 38.83112692 -17.47607715 36.51106897 -17 33 C-14.88890315 29.7297426 -12.5150232 26.7575116 -9 25 C-6.6670134 24.95977609 -4.33293334 24.95679753 -2 25 C-2.01047363 24.31373535 -2.02094727 23.6274707 -2.03173828 22.92041016 C-2.07321874 19.82197711 -2.09930069 16.72360239 -2.125 13.625 C-2.14175781 12.54476562 -2.15851563 11.46453125 -2.17578125 10.3515625 C-2.18222656 9.3203125 -2.18867187 8.2890625 -2.1953125 7.2265625 C-2.20578613 6.27346191 -2.21625977 5.32036133 -2.22705078 4.33837891 C-2 2 -2 2 0 0 Z " fill="#1F2949" transform="translate(109,227)"/>
<path d="M0 0 C2.97 0 5.94 0 9 0 C9.33 0.99 9.66 1.98 10 3 C10.54914063 2.5153125 11.09828125 2.030625 11.6640625 1.53125 C15.78344311 -1.16907977 20.25685744 -0.73446636 25 0 C28.43011999 1.644022 30.46318263 3.89613336 32.14013672 7.34448242 C33.0540406 10.16689369 33.22990792 12.34287294 33.1953125 15.30078125 C33.18886719 16.27724609 33.18242187 17.25371094 33.17578125 18.25976562 C33.15902344 19.26716797 33.14226562 20.27457031 33.125 21.3125 C33.11597656 22.33923828 33.10695313 23.36597656 33.09765625 24.42382812 C33.07416331 26.94931927 33.03829451 29.47468992 33 32 C29.7 32 26.4 32 23 32 C22.505 20.615 22.505 20.615 22 9 C14.69137249 8.22833733 14.69137249 8.22833733 12.0625 10.375 C10.28261628 13.0971751 9.84226586 14.91403538 9.68359375 18.1328125 C9.64169922 18.93847656 9.59980469 19.74414062 9.55664062 20.57421875 C9.49766602 21.83685547 9.49766602 21.83685547 9.4375 23.125 C9.39431641 23.97449219 9.35113281 24.82398438 9.30664062 25.69921875 C9.20045764 27.79928223 9.09971503 29.89961948 9 32 C6.03 32 3.06 32 0 32 C0 21.44 0 10.88 0 0 Z " fill="#272F4F" transform="translate(231,248)"/>
<path d="M0 0 C2.97 0 5.94 0 9 0 C9.33 0.99 9.66 1.98 10 3 C10.55945313 2.51402344 11.11890625 2.02804688 11.6953125 1.52734375 C15.57171952 -1.04159717 19.51086937 -0.63117318 24 0 C29.04995544 2.38725166 31.04026529 4.83445648 33 10 C33.35429181 13.80071724 33.28343599 17.56215927 33.1875 21.375 C33.16719727 22.90833984 33.16719727 22.90833984 33.14648438 24.47265625 C33.11130667 26.98199933 33.0575052 29.49106929 33 32 C29.7 32 26.4 32 23 32 C22.505 20.615 22.505 20.615 22 9 C19.03 9 16.06 9 13 9 C9.98564155 14.0589501 9.48235431 18.14848324 9.3125 23.875 C9.27833984 24.65875 9.24417969 25.4425 9.20898438 26.25 C9.12719588 28.16618748 9.0619054 30.08306715 9 32 C6.03 32 3.06 32 0 32 C0 21.44 0 10.88 0 0 Z " fill="#283152" transform="translate(388,248)"/>
<path d="M0 0 C2.97 0 5.94 0 9 0 C9 10.89 9 21.78 9 33 C15.93 33 22.86 33 30 33 C30 35.64 30 38.28 30 41 C20.1 41 10.2 41 0 41 C0 27.47 0 13.94 0 0 Z " fill="#212B4B" transform="translate(314,239)"/>
<path d="M0 0 C0.639375 0.495 1.27875 0.99 1.9375 1.5 C2.2675 0.51 2.5975 -0.48 2.9375 -1.5 C5.9075 -1.5 8.8775 -1.5 11.9375 -1.5 C11.9375 -0.84 11.9375 -0.18 11.9375 0.5 C10.7928125 0.62375 10.7928125 0.62375 9.625 0.75 C6.38225565 1.65495191 5.77484184 2.78773348 3.9375 5.5 C3.2775 5.5 2.6175 5.5 1.9375 5.5 C2.03289062 6.17546875 2.12828125 6.8509375 2.2265625 7.546875 C2.33742188 8.43890625 2.44828125 9.3309375 2.5625 10.25 C2.73652344 11.57257813 2.73652344 11.57257813 2.9140625 12.921875 C2.93989674 15.76364117 2.46817177 17.13537602 0.9375 19.5 C-2.27622779 21.79551985 -5.19234535 21.98376933 -9.0625 21.5 C-11.4375 19.5 -11.4375 19.5 -13.0625 17.5 C-13.3925 19.48 -13.7225 21.46 -14.0625 23.5 C-14.7225 23.17 -15.3825 22.84 -16.0625 22.5 C-15.7325 21.84 -15.4025 21.18 -15.0625 20.5 C-15.92875 20.8403125 -15.92875 20.8403125 -16.8125 21.1875 C-19.0625 21.5 -19.0625 21.5 -21.16796875 20.31640625 C-23.0625 18.5 -23.0625 18.5 -23.62890625 16.265625 C-23.62047177 10.83382245 -23.10550274 7.13019039 -19.5390625 2.90625 C-14.06430404 -2.30780568 -6.7064008 -3.28476774 0 0 Z " fill="#212C4C" transform="translate(449.0625,249.5)"/>
<path d="M0 0 C0.66 0 1.32 0 2 0 C2.495 3.465 2.495 3.465 3 7 C3.721875 7.20625 4.44375 7.4125 5.1875 7.625 C8.90482744 9.44236008 10.67131484 11.60677305 13 15 C13.3125 17.875 13.3125 17.875 13 20 C12.34 20 11.68 20 11 20 C11.66 20.33 12.32 20.66 13 21 C11.25 24.875 11.25 24.875 9 26 C9 25.01 9 24.02 9 23 C8.34 23 7.68 23 7 23 C6.4375 21.3125 5.875 19.625 5.3125 17.9375 C3.30909616 14.98009433 1.48136756 14.85932784 -2 14 C-5.98507554 13.67174997 -9.96382536 13.62766617 -13.9609375 13.5859375 C-15.67949448 13.55688828 -15.67949448 13.55688828 -17.43276978 13.5272522 C-21.08010491 13.46763215 -24.7274719 13.42114082 -28.375 13.375 C-30.85287809 13.3368041 -33.33074314 13.29775143 -35.80859375 13.2578125 C-41.87227972 13.16194497 -47.93604474 13.07684615 -54 13 C-53.6875 11.125 -53.6875 11.125 -53 9 C-49.82103387 6.88068925 -49.07025468 6.7530397 -45.43676758 6.77294922 C-44.51603958 6.77310028 -43.59531158 6.77325134 -42.64668274 6.77340698 C-41.16061775 6.78889084 -41.16061775 6.78889084 -39.64453125 6.8046875 C-38.11937141 6.80893234 -38.11937141 6.80893234 -36.56340027 6.81326294 C-33.31298092 6.82446617 -30.06283619 6.84957114 -26.8125 6.875 C-24.61003002 6.88502961 -22.40755572 6.89415549 -20.20507812 6.90234375 C-14.80329157 6.92440595 -9.40166541 6.95788492 -4 7 C-4.495 5.02 -4.495 5.02 -5 3 C-4.01 3 -3.02 3 -2 3 C-1.34 2.01 -0.68 1.02 0 0 Z " fill="#1E2849" transform="translate(140,190)"/>
<path d="M0 0 C-0.99 0.495 -0.99 0.495 -2 1 C-2.65555119 3.52733235 -2.65555119 3.52733235 -3 6 C-2.25234375 6.02578125 -1.5046875 6.0515625 -0.734375 6.078125 C7.26558497 6.53885568 7.26558497 6.53885568 10.6875 8.6875 C12.4564847 11.80428257 12.64883948 13.46742951 12 17 C10.0625 19.875 10.0625 19.875 7 22 C3.95123812 22.40276286 1.05480604 22.29949079 -2 22 C-2 24.15634036 -1.5534764 25.92446352 -1 28 C-1.99 28.33 -2.98 28.66 -4 29 C-9.04871534 26.16009762 -12.16221813 23.5133456 -14 18 C-14.65722003 13.15534951 -14.61588962 9.25538596 -11.8125 5.125 C-8.55315052 1.16590317 -5.28648242 -2.1537521 0 0 Z " fill="#222D4D" transform="translate(284,249)"/>
<path d="M0 0 C0.495 2.475 0.495 2.475 1 5 C1.66 4.67 2.32 4.34 3 4 C3 4.99 3 5.98 3 7 C-20.1 7 -43.2 7 -67 7 C-67 6.67 -67 6.34 -67 6 C-38.29 5.505 -38.29 5.505 -9 5 C-27.48 5 -45.96 5 -65 5 C-65 4.34 -65 3.68 -65 3 C-65.66 3 -66.32 3 -67 3 C-67 2.01 -67 1.02 -67 0 C-66.28003342 0.00222061 -65.56006683 0.00444122 -64.81828308 0.00672913 C-58.03507913 0.02676166 -51.2518796 0.04198929 -44.46865368 0.05181217 C-40.98128689 0.05703196 -37.49394453 0.06411324 -34.0065918 0.07543945 C-29.99788172 0.08837754 -25.98919733 0.09323569 -21.98046875 0.09765625 C-20.72727341 0.10281754 -19.47407806 0.10797882 -18.1829071 0.11329651 C-17.02193008 0.11337204 -15.86095306 0.11344757 -14.66479492 0.11352539 C-13.12924202 0.11685631 -13.12924202 0.11685631 -11.56266785 0.12025452 C-1.71035244 -0.34207049 -1.71035244 -0.34207049 0 0 Z " fill="#2B3757" transform="translate(145,210)"/>
<path d="M0 0 C0.33 0 0.66 0 1 0 C1.33 2.31 1.66 4.62 2 7 C1.01 7.33 0.02 7.66 -1 8 C-0.79375 8.763125 -0.5875 9.52625 -0.375 10.3125 C0 13 0 13 -2 16 C18.46 16 38.92 16 60 16 C56.72071337 18.18619109 55.78019778 18.24894167 51.98120117 18.24291992 C50.95971481 18.24599655 49.93822845 18.24907318 48.88578796 18.25224304 C47.78265762 18.24505753 46.67952728 18.23787201 45.54296875 18.23046875 C44.4072493 18.23001053 43.27152985 18.22955231 42.10139465 18.2290802 C39.6964107 18.22605691 37.29142872 18.21816834 34.88647461 18.20581055 C31.21265688 18.18762453 27.5390923 18.18530042 23.86523438 18.18554688 C21.52864366 18.18062879 19.19205465 18.17479921 16.85546875 18.16796875 C15.7584111 18.16685593 14.66135345 18.1657431 13.53105164 18.16459656 C8.58208288 18.13397052 3.86164388 18.0534525 -1 17 C-1 17.99 -1 18.98 -1 20 C-0.34 20 0.32 20 1 20 C1 20.66 1 21.32 1 22 C29.71 21.505 29.71 21.505 59 21 C58.67 21.66 58.34 22.32 58 23 C57.28749084 23.01030746 56.57498169 23.02061493 55.84088135 23.03123474 C49.07512592 23.12984393 42.30944096 23.232439 35.5438118 23.33933926 C32.06683347 23.39414123 28.58984639 23.44748489 25.11279297 23.49731445 C21.1011587 23.55487266 17.08965381 23.61909987 13.078125 23.68359375 C11.23519867 23.70866249 11.23519867 23.70866249 9.3550415 23.73423767 C1.86569944 23.86079389 -5.54464168 24.27329536 -13 25 C-12.01 23.515 -12.01 23.515 -11 22 C-11.33 21.34 -11.66 20.68 -12 20 C-11.04708506 13.37724116 -8.88867309 9.06171969 -3.62109375 4.9609375 C-2 4 -2 4 0 4 C0 2.68 0 1.36 0 0 Z " fill="#222B47" transform="translate(79,193)"/>
<path d="M0 0 C0.33 0 0.66 0 1 0 C1 7.92 1 15.84 1 24 C0.34 24 -0.32 24 -1 24 C-0.61367053 27.86329472 -0.12245015 30.75509971 1.625 34.25 C2.07875 35.1575 2.5325 36.065 3 37 C2.67 37.99 2.34 38.98 2 40 C3.32 40.33 4.64 40.66 6 41 C2.56880749 44.54556559 1.23103485 45.8990955 -3.8125 46.3125 C-7.03706396 46.27153458 -7.99286634 46.00434223 -10.875 44.25 C-13.96412999 40.97915648 -14.8255282 39.15587567 -15.5 34.6875 C-14.83398123 29.77561156 -12.58855833 27.29106127 -9 24 C-7 23 -7 23 0 23 C0 15.41 0 7.82 0 0 Z " fill="#212B4B" transform="translate(107,229)"/>
<path d="M0 0 C1.22830032 -0.01283524 2.45660065 -0.02567047 3.72212219 -0.03889465 C5.07410277 -0.04706209 6.42608789 -0.05450581 7.77807617 -0.0612793 C8.45618536 -0.06535482 9.13429455 -0.06943035 9.8329525 -0.07362938 C13.42313714 -0.0945088 17.01328335 -0.10880143 20.60351562 -0.11816406 C24.31276247 -0.12922312 28.02140846 -0.1636107 31.730443 -0.20333576 C34.58120336 -0.22948309 37.43182032 -0.23785423 40.28269005 -0.24144554 C41.64984882 -0.24631773 43.01700092 -0.25794991 44.38404274 -0.27648354 C46.2988504 -0.30082626 48.21394921 -0.29749495 50.12890625 -0.29296875 C51.21843094 -0.29883499 52.30795563 -0.30470123 53.43049622 -0.31074524 C56.90599662 0.28866649 58.0942492 1.45556322 60.25854492 4.17700195 C60.25854492 4.50700195 60.25854492 4.83700195 60.25854492 5.17700195 C37.48854492 5.17700195 14.71854492 5.17700195 -8.74145508 5.17700195 C-6.00364998 -0.29860825 -5.8686074 0.05314118 0 0 Z " fill="#F7FAFC" transform="translate(85.741455078125,203.822998046875)"/>
<path d="M0 0 C3.3 0 6.6 0 10 0 C10 10.56 10 21.12 10 32 C6.7 32 3.4 32 0 32 C0 21.44 0 10.88 0 0 Z " fill="#323C59" transform="translate(214,248)"/>
<path d="M0 0 C2.24316469 3.36474704 2.84816965 4.97649566 3 9 C1.74333801 13.62558562 -0.32633369 17.04285198 -4.5 19.5 C-10.62674711 22.0556636 -17.48875331 22.14895519 -23.76953125 20.09375 C-25.91098469 19.14948706 -27.96378832 18.15179651 -30 17 C-29.34 15.02 -28.68 13.04 -28 11 C-25 11 -25 11 -22 12 C-17.95744203 12.39800149 -14.03348575 12.52513526 -10 12 C-7.39089037 9.6816144 -7.39089037 9.6816144 -6 7 C-5.01 7 -4.02 7 -3 7 C-3.061875 6.21625 -3.12375 5.4325 -3.1875 4.625 C-3.0946875 3.325625 -3.0946875 3.325625 -3 2 C-2.01 1.34 -1.02 0.68 0 0 Z " fill="#263251" transform="translate(458,271)"/>
<path d="M0 0 C1.90625 0.41015625 1.90625 0.41015625 4.40625 1.91015625 C6.49713199 5.39495957 6.66371634 8.50688581 5.90625 12.41015625 C4.28125 15.41015625 4.28125 15.41015625 1.90625 17.41015625 C-1.99322249 17.97882932 -4.81572855 17.63452795 -8.09375 15.41015625 C-10.5853404 11.67277065 -10.55168285 9.83684042 -10.09375 5.41015625 C-7.62840011 0.58217939 -5.16353434 -0.37570492 0 0 Z " fill="#F3F4F7" transform="translate(366.09375,255.58984375)"/>
<path d="M0 0 C0.87552521 -0.00570007 1.75105042 -0.01140015 2.65310669 -0.01727295 C4.50749501 -0.02672748 6.36190017 -0.03325873 8.21630859 -0.03710938 C11.05205639 -0.04681253 13.88707872 -0.07783025 16.72265625 -0.109375 C18.52343319 -0.11590529 20.32421532 -0.12115566 22.125 -0.125 C22.97303192 -0.1373468 23.82106384 -0.1496936 24.6947937 -0.16241455 C28.27562062 -0.14888126 30.57494185 -0.13414327 33.76220703 1.59863281 C35.1953125 3.203125 35.1953125 3.203125 35.1953125 5.203125 C19.3553125 5.203125 3.5153125 5.203125 -12.8046875 5.203125 C-9.68100091 -1.04424819 -6.39020228 0.03187209 0 0 Z " fill="#F6F8FB" transform="translate(99.8046875,190.796875)"/>
<path d="M0 0 C3.125 0.375 3.125 0.375 6 1 C5.67 2.98 5.34 4.96 5 7 C21.17 6.67 37.34 6.34 54 6 C54 6.66 54 7.32 54 8 C53.1455555 8.01213028 53.1455555 8.01213028 52.27384949 8.02450562 C46.35282812 8.1104667 40.43214481 8.20996639 34.51147461 8.31738281 C32.30092032 8.35570017 30.09030308 8.39054814 27.87963867 8.421875 C24.70468629 8.46746552 21.53016828 8.52547003 18.35546875 8.5859375 C17.36475876 8.59748871 16.37404877 8.60903992 15.35331726 8.62094116 C13.97222527 8.6507457 13.97222527 8.6507457 12.56323242 8.68115234 C11.7527092 8.69447601 10.94218597 8.70779968 10.10710144 8.7215271 C7.69899809 8.88223777 7.69899809 8.88223777 5 11 C4.67 11.99 4.34 12.98 4 14 C21.16 14 38.32 14 56 14 C56 14.33 56 14.66 56 15 C36.2 15.33 16.4 15.66 -4 16 C-4 12 -4 12 -2 10 C-2 8.68 -2 7.36 -2 6 C-2 2 -2 2 0 0 Z " fill="#323A59" transform="translate(82,189)"/>
<path d="M0 0 C2.12890625 0.41796875 2.12890625 0.41796875 4.69140625 2.04296875 C6.59434276 5.1869508 6.79353555 6.79943146 6.12890625 10.41796875 C4.06640625 13.29296875 4.06640625 13.29296875 1.12890625 15.41796875 C-2.86916783 16.0492436 -4.8784536 16.09714359 -8.24609375 13.79296875 C-10.27103911 10.83343322 -10.87109375 9.01278865 -10.87109375 5.41796875 C-8.3743737 0.1975541 -5.38234134 -0.32808341 0 0 Z " fill="#F1F3F5" transform="translate(289.87109375,255.58203125)"/>
<path d="M0 0 C2.625 1.5625 2.625 1.5625 4 4 C3.93700518 7.59070498 3.77851471 9.98454603 1.5625 12.875 C-1.68436485 15.21274269 -4.02224969 15.39777503 -8 15 C-11.25005618 12.80401609 -11.91747036 11.28885375 -13 7.5 C-13 4 -13 4 -11.625 1.5625 C-7.77659295 -0.72821848 -4.36762884 -0.77593406 0 0 Z " fill="#F1F4F6" transform="translate(448,256)"/>
<path d="M0 0 C0.44988281 0.3609375 0.89976562 0.721875 1.36328125 1.09375 C7.09395121 5.22810107 12.02531666 5.99042589 19 5 C20.68745601 4.38786078 22.36222361 3.73478617 24 3 C23.39622642 8.43396226 23.39622642 8.43396226 21.82421875 10.6796875 C19.22771465 12.55895599 17.29831569 12.36393779 14.125 12.3125 C13.09632813 12.30863281 12.06765625 12.30476563 11.0078125 12.30078125 C7.98202479 11.99820248 5.74590288 11.27162661 3 10 C2.34 11.32 1.68 12.64 1 14 C0.34 14 -0.32 14 -1 14 C-1.99 11.03 -2.98 8.06 -4 5 C-3.34 4.54625 -2.68 4.0925 -2 3.625 C-1.34 3.08875 -0.68 2.5525 0 2 C0 1.34 0 0.68 0 0 Z " fill="#F0F1F5" transform="translate(428,272)"/>
<path d="M0 0 C0.66 0 1.32 0 2 0 C4 3 4 3 4 6 C5.32 6 6.64 6 8 6 C8.33 4.02 8.66 2.04 9 0 C9.33 0 9.66 0 10 0 C10 7.26 10 14.52 10 22 C6.7 22 3.4 22 0 22 C0 14.74 0 7.48 0 0 Z " fill="#343C59" transform="translate(411,258)"/>
<path d="M0 0 C-0.66 2.31 -1.32 4.62 -2 7 C-2.99 6.855625 -3.98 6.71125 -5 6.5625 C-8.99409465 5.99074821 -12.99532937 5.49180166 -17 5 C-16.34 4.34 -15.68 3.68 -15 3 C-16.32 2.01 -17.64 1.02 -19 0 C-19 0.66 -19 1.32 -19 2 C-20.32 2 -21.64 2 -23 2 C-22.67 2.66 -22.34 3.32 -22 4 C-23.33333333 4.66666667 -24.66666667 5.33333333 -26 6 C-26.33 5.34 -26.66 4.68 -27 4 C-27.99 5.485 -27.99 5.485 -29 7 C-29.66 7 -30.32 7 -31 7 C-29.72492011 3.06850367 -28.5602193 1.13613158 -25 -1 C-16.75382184 -4.85388395 -8.05561947 -3.71797822 0 0 Z " fill="#263252" transform="translate(206,241)"/>
<path d="M0 0 C0.33 0 0.66 0 1 0 C1 7.92 1 15.84 1 24 C0.34 24 -0.32 24 -1 24 C-0.835 25.03125 -0.67 26.0625 -0.5 27.125 C-0.06553871 30.49207497 0.16124324 33.61389206 0 37 C-1 38 -1 38 -3.5625 38.0625 C-4.366875 38.041875 -5.17125 38.02125 -6 38 C-6.66 36.68 -7.32 35.36 -8 34 C-9.32 34 -10.64 34 -12 34 C-12.875 31.3125 -12.875 31.3125 -13 28 C-9.65591398 24.15430108 -9.65591398 24.15430108 -7 23 C-4.69 23 -2.38 23 0 23 C0 15.41 0 7.82 0 0 Z " fill="#353F5A" transform="translate(107,229)"/>
<path d="M0 0 C0.66 0.66 1.32 1.32 2 2 C2.99 2 3.98 2 5 2 C6 3 6 3 6.11352539 4.76586914 C6.10828857 5.51473389 6.10305176 6.26359863 6.09765625 7.03515625 C6.09443359 7.84404297 6.09121094 8.65292969 6.08789062 9.48632812 C6.07951172 10.33646484 6.07113281 11.18660156 6.0625 12.0625 C6.05798828 12.91650391 6.05347656 13.77050781 6.04882812 14.65039062 C6.03700373 16.76695663 6.01906769 18.88348685 6 21 C3.36 21 0.72 21 -2 21 C-2.05390357 18.06225537 -2.0936255 15.12549768 -2.125 12.1875 C-2.14175781 11.35412109 -2.15851563 10.52074219 -2.17578125 9.66210938 C-2.18222656 8.85966797 -2.18867188 8.05722656 -2.1953125 7.23046875 C-2.20578613 6.49207764 -2.21625977 5.75368652 -2.22705078 4.99291992 C-2 3 -2 3 0 0 Z " fill="#1F284A" transform="translate(257,259)"/>
<path d="M0 0 C2.31856881 0.53505434 4.4116911 1.16663687 6.625 2.0625 C11.12778419 3.31327339 15.35797898 3.16513118 20 3 C18.74458443 5.51083114 17.49936512 5.87125446 15 7 C15.33 7.99 15.66 8.98 16 10 C17.98 10 19.96 10 22 10 C17.69461453 12.87025698 14.05698487 12.59575438 9 12 C5.22393504 10.90617766 1.61531923 9.53960363 -2 8 C-1.47731534 5.23723823 -0.89130413 2.6739124 0 0 Z " fill="#38425D" transform="translate(176,269)"/>
<path d="M0 0 C1.9375 1.25 1.9375 1.25 2.875 3.25 C2.895625 3.91 2.91625 4.57 2.9375 5.25 C0.9375 7.25 0.9375 7.25 -2.6875 7.375 C-3.80125 7.33375 -4.915 7.2925 -6.0625 7.25 C-6.0625 6.59 -6.0625 5.93 -6.0625 5.25 C-7.79825649 4.37563582 -7.79825649 4.37563582 -10.0625 4.25 C-12.81506794 6.10164036 -12.81506794 6.10164036 -15.0625 8.25 C-15.7225 7.92 -16.3825 7.59 -17.0625 7.25 C-17.3925 8.57 -17.7225 9.89 -18.0625 11.25 C-19.0525 10.92 -20.0425 10.59 -21.0625 10.25 C-21.0625 5.06818182 -21.0625 5.06818182 -19.0625 2.25 C-13.2494845 -1.81911085 -6.68086256 -1.63612961 0 0 Z " fill="#202A4B" transform="translate(372.0625,248.75)"/>
<path d="M0 0 C1.32 0.33 2.64 0.66 4 1 C4.33 3.31 4.66 5.62 5 8 C5.70348068 7.83734146 6.40696136 7.67468292 7.13175964 7.50709534 C10.11874748 6.97900584 12.85987014 6.879869 15.8918457 6.88647461 C17.05267166 6.88655014 18.21349762 6.88662567 19.40950012 6.88670349 C20.65237289 6.89186478 21.89524567 6.89702606 23.17578125 6.90234375 C24.45607712 6.9037587 25.73637299 6.90517365 27.0554657 6.90663147 C30.4469704 6.91043603 33.83843177 6.92024857 37.22991943 6.93133545 C40.69559137 6.94159403 44.16127036 6.94613859 47.62695312 6.95117188 C54.41798748 6.96219245 61.20898981 6.9789243 68 7 C67.67 7.66 67.34 8.32 67 9 C66.28749084 9.01030746 65.57498169 9.02061493 64.84088135 9.03123474 C58.07512592 9.12984393 51.30944096 9.232439 44.5438118 9.33933926 C41.06683347 9.39414123 37.58984639 9.44748489 34.11279297 9.49731445 C30.1011587 9.55487266 26.08965381 9.61909987 22.078125 9.68359375 C20.23519867 9.70866249 20.23519867 9.70866249 18.3550415 9.73423767 C10.86569944 9.86079389 3.45535832 10.27329536 -4 11 C-3.34 10.01 -2.68 9.02 -2 8 C-2.33 7.34 -2.66 6.68 -3 6 C-2.06553465 3.96855359 -1.06775224 1.96466413 0 0 Z " fill="#1D2745" transform="translate(70,207)"/>
<path d="M0 0 C0.8125 1.6875 0.8125 1.6875 1 4 C-0.75 6.75 -0.75 6.75 -4 9 C-10.63498638 10.10242851 -16.12430088 9.1337062 -22 6 C-21.34 4.35 -20.68 2.7 -20 1 C-19.28972656 1.16113281 -18.57945312 1.32226562 -17.84765625 1.48828125 C-14.98843136 2.00207886 -12.33999826 2.16731573 -9.4375 2.1875 C-8.50808594 2.20167969 -7.57867187 2.21585937 -6.62109375 2.23046875 C-3.92511611 1.99341557 -2.30592125 1.37270136 0 0 Z " fill="#F2F5F8" transform="translate(295,275)"/>
<path d="M0 0 C0.69480469 0.32742188 1.38960938 0.65484375 2.10546875 0.9921875 C5.36368828 2.12662831 7.87449502 2.20056055 11.3125 2.125 C12.38113281 2.10695313 13.44976562 2.08890625 14.55078125 2.0703125 C15.76314453 2.03550781 15.76314453 2.03550781 17 2 C17 3.32 17 4.64 17 6 C14.03 5.34 11.06 4.68 8 4 C8 4.66 8 5.32 8 6 C9.65 6.33 11.3 6.66 13 7 C12.67 7.99 12.34 8.98 12 10 C13.65 10 15.3 10 17 10 C17 10.33 17 10.66 17 11 C10.39246186 11.37244996 3.93772075 11.28671103 -2 8 C-2.33 7.01 -2.66 6.02 -3 5 C-1.5625 2.3125 -1.5625 2.3125 0 0 Z " fill="#353D5B" transform="translate(275,281)"/>
<path d="M0 0 C2.10597638 0.61887466 4.20972971 1.24531797 6.3125 1.875 C7.48425781 2.22304688 8.65601563 2.57109375 9.86328125 2.9296875 C13 4 13 4 16 6 C16.33 6.99 16.66 7.98 17 9 C11.16375752 10.94541416 4.98712842 10.80832343 -0.6875 8.5 C-1.450625 8.005 -2.21375 7.51 -3 7 C-1.125 1.125 -1.125 1.125 0 0 Z " fill="#2A314A" transform="translate(431,281)"/>
<path d="M0 0 C5.05367833 -0.07422923 10.1070384 -0.12863915 15.16113281 -0.16479492 C16.87993905 -0.17986933 18.59870691 -0.20033229 20.31738281 -0.22631836 C22.78980997 -0.26276165 25.261728 -0.27973958 27.734375 -0.29296875 C28.50118591 -0.30845261 29.26799683 -0.32393646 30.05804443 -0.33988953 C34.32234178 -0.34123073 36.91928048 -0.0771703 40 3 C34.62486811 3.0740324 29.25003146 3.12854569 23.87451172 3.16479492 C22.04503207 3.17990251 20.21558875 3.20038968 18.38623047 3.22631836 C15.76000008 3.26261585 13.13424751 3.27970615 10.5078125 3.29296875 C9.68693146 3.30845261 8.86605042 3.32393646 8.02029419 3.33988953 C5.71533203 3.34057617 5.71533203 3.34057617 2 3 C1.34 2.01 0.68 1.02 0 0 Z " fill="#1D2641" transform="translate(91,290)"/>
<path d="M0 0 C2.80915558 2.56488118 3.925545 4.45213655 4.11352539 8.36010742 C4.10828857 9.26607666 4.10305176 10.1720459 4.09765625 11.10546875 C4.09443359 12.08837891 4.09121094 13.07128906 4.08789062 14.08398438 C4.07951172 15.10814453 4.07113281 16.13230469 4.0625 17.1875 C4.05798828 18.22326172 4.05347656 19.25902344 4.04882812 20.32617188 C4.0370401 22.88417266 4.02058515 25.44205733 4 28 C3.67 28 3.34 28 3 28 C2.67 22.06 2.34 16.12 2 10 C1.01 10 0.02 10 -1 10 C-1.66 9.34 -2.32 8.68 -3 8 C-4.11823815 10.23647631 -4.19396061 11.64891529 -4.31640625 14.1328125 C-4.35830078 14.93847656 -4.40019531 15.74414062 -4.44335938 16.57421875 C-4.50233398 17.83685547 -4.50233398 17.83685547 -4.5625 19.125 C-4.60568359 19.97449219 -4.64886719 20.82398438 -4.69335938 21.69921875 C-4.79954236 23.79928223 -4.90028497 25.89961948 -5 28 C-5.33 28 -5.66 28 -6 28 C-6.19766544 24.43798805 -6.38133629 20.87538633 -6.5625 17.3125 C-6.61857422 16.30509766 -6.67464844 15.29769531 -6.73242188 14.25976562 C-6.78076172 13.28330078 -6.82910156 12.30683594 -6.87890625 11.30078125 C-6.9260376 10.40528564 -6.97316895 9.50979004 -7.02172852 8.5871582 C-6.99942695 5.93176823 -6.60392668 3.58041401 -6 1 C-4.35 1.33 -2.7 1.66 -1 2 C-0.67 1.34 -0.34 0.68 0 0 Z " fill="#444C6A" transform="translate(260,252)"/>
<path d="M0 0 C5.50366792 -0.32374517 9.43672206 -0.53286034 14 3 C14.33 2.01 14.66 1.02 15 0 C17.97 0 20.94 0 24 0 C24 0.66 24 1.32 24 2 C23.236875 2.0825 22.47375 2.165 21.6875 2.25 C18.44475565 3.15495191 17.83734184 4.28773348 16 7 C15.34 7 14.68 7 14 7 C13.67 8.32 13.34 9.64 13 11 C13 10.34 13 9.68 13 9 C9.7 8.67 6.4 8.34 3 8 C3 7.34 3 6.68 3 6 C4.32 5.34 5.64 4.68 7 4 C5.16116119 1.71271266 5.16116119 1.71271266 2.375 1.875 C1.199375 1.936875 1.199375 1.936875 0 2 C0 1.34 0 0.68 0 0 Z " fill="#2F3855" transform="translate(437,248)"/>
<path d="M0 0 C2 2 2 2 2.25 5 C2 8 2 8 0 10 C-3.1304173 10.33302312 -5.17898298 10.47671956 -7.9375 8.875 C-9 7 -9 7 -8.8125 3.875 C-8.544375 2.92625 -8.27625 1.9775 -8 1 C-5.23749964 -0.38125018 -3.05268901 -0.19079306 0 0 Z " fill="#26314B" transform="translate(222,234)"/>
<path d="M0 0 C1.46015291 0.28241641 2.91809793 0.57626614 4.375 0.875 C5.18710938 1.03742188 5.99921875 1.19984375 6.8359375 1.3671875 C9 2 9 2 11 4 C10.44444444 8.55555556 10.44444444 8.55555556 9 10 C6.30917128 9.82364548 3.67148554 9.38164079 1 9 C-1.125 2.25 -1.125 2.25 0 0 Z " fill="#293255" transform="translate(119,240)"/>
<path d="M0 0 C0.33 0.66 0.66 1.32 1 2 C1.66 2 2.32 2 3 2 C3.0272415 3.41655793 3.04650467 4.83327045 3.0625 6.25 C3.07410156 7.03890625 3.08570312 7.8278125 3.09765625 8.640625 C3.00385306 10.90691002 2.63241063 12.8288895 2 15 C2.66 15.33 3.32 15.66 4 16 C3.38125 16.268125 2.7625 16.53625 2.125 16.8125 C-0.2995233 17.95556848 -0.2995233 17.95556848 -2 21 C-3.09506492 17.71480525 -3.09960608 15.26336585 -3.0625 11.8125 C-3.05347656 10.72582031 -3.04445312 9.63914063 -3.03515625 8.51953125 C-3.02355469 7.68808594 -3.01195312 6.85664063 -3 6 C-2.34 6.66 -1.68 7.32 -1 8 C-0.67 5.36 -0.34 2.72 0 0 Z " fill="#1F2949" transform="translate(62,238)"/>
<path d="M0 0 C3.51175807 0.65032557 6.20618254 1.74942483 9 4 C9.3125 7.1875 9.3125 7.1875 9 10 C7.54119891 9.85892253 6.08296449 9.71197585 4.625 9.5625 C3.40683594 9.44068359 3.40683594 9.44068359 2.1640625 9.31640625 C0 9 0 9 -2 8 C-1.47731534 5.23723823 -0.89130413 2.6739124 0 0 Z " fill="#293251" transform="translate(176,269)"/>
<path d="M0 0 C0.33 0 0.66 0 1 0 C1.19397476 1.97854258 1.38001321 3.9578648 1.5625 5.9375 C1.66691406 7.03964844 1.77132812 8.14179688 1.87890625 9.27734375 C1.91886719 10.17582031 1.95882812 11.07429687 2 12 C1.67 12.33 1.34 12.66 1 13 C0.896875 14.2375 0.79375 15.475 0.6875 16.75 C0.24634677 20.83801993 -1.10476272 23.01136797 -4 26 C-5.33257403 15.44191344 -5.33257403 15.44191344 -4 11 C-3.67 11.66 -3.34 12.32 -3 13 C-2.01 12.34 -1.02 11.68 0 11 C-0.185625 10.29875 -0.37125 9.5975 -0.5625 8.875 C-1.05156976 5.66111302 -0.66231558 3.16439664 0 0 Z " fill="#283050" transform="translate(65,243)"/>
<path d="M0 0 C1.06863281 0.01804688 2.13726562 0.03609375 3.23828125 0.0546875 C4.04652344 0.07789063 4.85476562 0.10109375 5.6875 0.125 C5.6875 0.785 5.6875 1.445 5.6875 2.125 C2.0575 2.455 -1.5725 2.785 -5.3125 3.125 C-5.3125 3.785 -5.3125 4.445 -5.3125 5.125 C-6.6325 5.125 -7.9525 5.125 -9.3125 5.125 C-8.9825 5.785 -8.6525 6.445 -8.3125 7.125 C-9.64583333 7.79166667 -10.97916667 8.45833333 -12.3125 9.125 C-12.6425 8.465 -12.9725 7.805 -13.3125 7.125 C-14.3025 8.61 -14.3025 8.61 -15.3125 10.125 C-15.9725 10.125 -16.6325 10.125 -17.3125 10.125 C-16.03742011 6.19350367 -14.8727193 4.26113158 -11.3125 2.125 C-7.39328508 0.24732735 -4.32904279 -0.0951438 0 0 Z " fill="#303954" transform="translate(192.3125,237.875)"/>
<path d="M0 0 C1.5 1.3125 1.5 1.3125 3 3 C3 3.99 3 4.98 3 6 C3.99 6.33 4.98 6.66 6 7 C6 8.32 6 9.64 6 11 C5.01 11 4.02 11 3 11 C2.34 11.66 1.68 12.32 1 13 C0.01 13 -0.98 13 -2 13 C-2.05416188 11.39620659 -2.09286638 9.79188594 -2.125 8.1875 C-2.14820313 7.29417969 -2.17140625 6.40085937 -2.1953125 5.48046875 C-2 3 -2 3 0 0 Z " fill="#262E4F" transform="translate(428,255)"/>
<path d="M0 0 C0.66 0.33 1.32 0.66 2 1 C1.88637738 2.4800841 1.75877092 3.95910074 1.625 5.4375 C1.55539062 6.26121094 1.48578125 7.08492188 1.4140625 7.93359375 C1.27742188 8.61550781 1.14078125 9.29742187 1 10 C-1.76452033 11.38226016 -4.0461363 11.09525387 -7.125 11.0625 C-8.22070312 11.05347656 -9.31640625 11.04445313 -10.4453125 11.03515625 C-11.70988281 11.01775391 -11.70988281 11.01775391 -13 11 C-13 10.67 -13 10.34 -13 10 C-9.7 9.34 -6.4 8.68 -3 8 C-5.46278801 5.53721199 -7.70676982 5.00228745 -11 4 C-11 3.67 -11 3.34 -11 3 C-10.37351562 2.95101563 -9.74703125 2.90203125 -9.1015625 2.8515625 C-8.28429687 2.77679688 -7.46703125 2.70203125 -6.625 2.625 C-5.81289063 2.55539062 -5.00078125 2.48578125 -4.1640625 2.4140625 C-1.79665809 2.17107412 -1.79665809 2.17107412 0 0 Z " fill="#38405D" transform="translate(450,281)"/>
<path d="M0 0 C0.66 0 1.32 0 2 0 C3.92118227 5.63546798 3.92118227 5.63546798 4.5 8.3125 C4.665 8.869375 4.83 9.42625 5 10 C5.66 10.33 6.32 10.66 7 11 C6.34 12.32 5.68 13.64 5 15 C4.34 14.67 3.68 14.34 3 14 C2.67 14 2.34 14 2 14 C0.66431979 13.67619874 -0.66923011 13.34342449 -2 13 C-1.835 12.13375 -1.67 11.2675 -1.5 10.375 C-0.91909293 7.02251659 -0.91909293 7.02251659 -1 3.6875 C-1 1 -1 1 0 0 Z " fill="#1E2847" transform="translate(354,263)"/>
<path d="M0 0 C0.66 1.32 1.32 2.64 2 4 C2.66 4 3.32 4 4 4 C3.835 4.763125 3.67 5.52625 3.5 6.3125 C2.90854604 9.03596236 2.90854604 9.03596236 3 12 C2.01 12.495 2.01 12.495 1 13 C-3.22271781 10.46636932 -5.78310162 8.43379675 -8 4 C-1.125 4.875 -1.125 4.875 0 6 C0 4.02 0 2.04 0 0 Z " fill="#2B3550" transform="translate(435,265)"/>
<path d="M0 0 C2.475 0.99 2.475 0.99 5 2 C4.95875 2.928125 4.9175 3.85625 4.875 4.8125 C4.72863661 8.15809719 4.72863661 8.15809719 7 11 C7.3125 14.5625 7.3125 14.5625 7 18 C6.01 18.66 5.02 19.32 4 20 C4 16.37 4 12.74 4 9 C2.68 8.34 1.36 7.68 0 7 C-1.23843794 4.04680182 -1.04187157 3.12561472 0 0 Z " fill="#1E294B" transform="translate(156,212)"/>
<path d="M0 0 C2.475 0.99 2.475 0.99 5 2 C5 7.94 5 13.88 5 20 C4.67 20 4.34 20 4 20 C4 16.37 4 12.74 4 9 C2.68 9 1.36 9 0 9 C-1.3950848 6.70221327 -2.07438619 5.5207033 -1.6875 2.8125 C-1 1 -1 1 0 0 Z " fill="#1E2849" transform="translate(415,255)"/>
<path d="M0 0 C3 2 3 2 4 5 C2.54364629 5.22174933 1.08477044 5.42698698 -0.375 5.625 C-1.18710937 5.74101562 -1.99921875 5.85703125 -2.8359375 5.9765625 C-3.55007813 5.98429687 -4.26421875 5.99203125 -5 6 C-5.66 5.34 -6.32 4.68 -7 4 C-7.99 3.67 -8.98 3.34 -10 3 C-10 2.34 -10 1.68 -10 1 C-6.87293041 -0.5635348 -3.42017557 -0.39958487 0 0 Z " fill="#1E274A" transform="translate(444,285)"/>
<path d="M0 0 C0.33 0.99 0.66 1.98 1 3 C1.66 3 2.32 3 3 3 C3.33 3.99 3.66 4.98 4 6 C3.34 6 2.68 6 2 6 C2 6.66 2 7.32 2 8 C-0.31 8 -2.62 8 -5 8 C-5 7.01 -5 6.02 -5 5 C-6.32 4.67 -7.64 4.34 -9 4 C-9 3.34 -9 2.68 -9 2 C-6.33333333 2 -3.66666667 2 -1 2 C-0.67 1.34 -0.34 0.68 0 0 Z " fill="#1D2848" transform="translate(292,283)"/>
<path d="M0 0 C1.32 0.66 2.64 1.32 4 2 C3.67 3.65 3.34 5.3 3 7 C0.69 7 -1.62 7 -4 7 C-4 6.34 -4 5.68 -4 5 C-5.65 5 -7.3 5 -9 5 C-9 4.01 -9 3.02 -9 2 C-6.94921875 1.77213542 -4.8984375 1.54427083 -2.84765625 1.31640625 C-0.98859771 1.18113386 -0.98859771 1.18113386 0 0 Z " fill="#1C274B" transform="translate(196,272)"/>
<path d="M0 0 C2.97 0 5.94 0 9 0 C9 0.33 9 0.66 9 1 C6.36 1 3.72 1 1 1 C1 1.99 1 2.98 1 4 C0.34 4 -0.32 4 -1 4 C-1 6.31 -1 8.62 -1 11 C-1.33 10.34 -1.66 9.68 -2 9 C-4.12576782 8.53348793 -4.12576782 8.53348793 -6.5625 8.375 C-7.38878906 8.30023438 -8.21507812 8.22546875 -9.06640625 8.1484375 C-9.70449219 8.09945313 -10.34257812 8.05046875 -11 8 C-11 7.67 -11 7.34 -11 7 C-7.535 6.505 -7.535 6.505 -4 6 C-4 5.34 -4 4.68 -4 4 C-4.66 4 -5.32 4 -6 4 C-6.33 3.01 -6.66 2.02 -7 1 C-2.25 1.875 -2.25 1.875 0 3 C0 2.01 0 1.02 0 0 Z " fill="#404861" transform="translate(296,248)"/>
<path d="M0 0 C0.598125 0.226875 1.19625 0.45375 1.8125 0.6875 C1.8125 2.3375 1.8125 3.9875 1.8125 5.6875 C1.1525 5.6875 0.4925 5.6875 -0.1875 5.6875 C0.4725 6.0175 1.1325 6.3475 1.8125 6.6875 C0.0625 10.5625 0.0625 10.5625 -2.1875 11.6875 C-2.1875 10.6975 -2.1875 9.7075 -2.1875 8.6875 C-2.8475 8.6875 -3.5075 8.6875 -4.1875 8.6875 C-4.875 5.875 -4.875 5.875 -5.1875 2.6875 C-3.62441875 0.13720955 -3.00012909 -0.42858987 0 0 Z " fill="#1B2648" transform="translate(151.1875,204.3125)"/>
<path d="M0 0 C0.33 0 0.66 0 1 0 C1 8.58 1 17.16 1 26 C-1.47174961 23.52825039 -1.57959037 22.44735901 -2 19 C-1.93955856 16.26914605 -1.82314572 13.59455002 -1.625 10.875 C-1.58117187 10.15957031 -1.53734375 9.44414062 -1.4921875 8.70703125 C-1.28389788 5.61161599 -0.98539564 2.95618693 0 0 Z " fill="#23293F" transform="translate(460,250)"/>
<path d="M0 0 C3.465 1.485 3.465 1.485 7 3 C6.67 3.66 6.34 4.32 6 5 C5.34 5 4.68 5 4 5 C4 5.99 4 6.98 4 8 C2.02 8 0.04 8 -2 8 C-2.33 7.01 -2.66 6.02 -3 5 C-1.5625 2.3125 -1.5625 2.3125 0 0 Z " fill="#242D4C" transform="translate(275,281)"/>
<path d="M0 0 C1.32 0.66 2.64 1.32 4 2 C4 2.66 4 3.32 4 4 C4.99 4.33 5.98 4.66 7 5 C6.34 6.32 5.68 7.64 5 9 C3.5199159 8.88637738 2.04089926 8.75877092 0.5625 8.625 C-0.26121094 8.55539062 -1.08492188 8.48578125 -1.93359375 8.4140625 C-2.61550781 8.27742188 -3.29742187 8.14078125 -4 8 C-4.33 7.34 -4.66 6.68 -5 6 C-4.34 6 -3.68 6 -3 6 C-2.67 5.34 -2.34 4.68 -2 4 C-1.01 5.485 -1.01 5.485 0 7 C0.93423645 3.98968256 1.04449911 3.13349732 0 0 Z " fill="#272F51" transform="translate(359,271)"/>
<path d="M0 0 C4.12111617 5.49482156 4.10687185 7.37394555 4 14 C2.02 14.99 2.02 14.99 0 16 C0 10.72 0 5.44 0 0 Z " fill="#374057" transform="translate(378,254)"/>
<path d="M0 0 C2.5 0.125 2.5 0.125 3.5 1.125 C3.625 3.625 3.625 3.625 3.5 6.125 C2.5 7.125 2.5 7.125 0 7.25 C-2.5 7.125 -2.5 7.125 -3.5 6.125 C-3.625 3.625 -3.625 3.625 -3.5 1.125 C-2.5 0.125 -2.5 0.125 0 0 Z " fill="#ECEFF5" transform="translate(103.5,259.875)"/>
<path d="M0 0 C2.0625 1.75 2.0625 1.75 4 4 C3.80984746 6.21844626 3.58477845 7.41522155 2 9 C2.66 10.32 3.32 11.64 4 13 C0.34683329 11.75023244 -0.78065836 11.32901247 -3 8 C-2.01 7.67 -1.02 7.34 0 7 C-0.33 6.01 -0.66 5.02 -1 4 C-1.66 3.67 -2.32 3.34 -3 3 C-2.01 2.01 -1.02 1.02 0 0 Z " fill="#252E50" transform="translate(70,278)"/>
<path d="M0 0 C0.33 0 0.66 0 1 0 C1.33 6.27 1.66 12.54 2 19 C6.23578792 16.89609059 6.23578792 16.89609059 8 13 C8 15.31 8 17.62 8 20 C5.36 20 2.72 20 0 20 C0 13.4 0 6.8 0 0 Z " fill="#212946" transform="translate(389,260)"/>
<path d="M0 0 C0.5775 0.226875 1.155 0.45375 1.75 0.6875 C1.75 1.6775 1.75 2.6675 1.75 3.6875 C0.1103125 4.0896875 0.1103125 4.0896875 -1.5625 4.5 C-4.86692663 5.56413739 -6.19960422 6.03404664 -8.25 8.6875 C-8.91 8.3575 -9.57 8.0275 -10.25 7.6875 C-9.92 6.0375 -9.59 4.3875 -9.25 2.6875 C-8.26 2.6875 -7.27 2.6875 -6.25 2.6875 C-5.2909375 1.9140625 -5.2909375 1.9140625 -4.3125 1.125 C-2.25 -0.3125 -2.25 -0.3125 0 0 Z " fill="#2F3858" transform="translate(364.25,252.3125)"/>
<path d="M0 0 C1.32 0.66 2.64 1.32 4 2 C3.67 2.99 3.34 3.98 3 5 C2.01 5.33 1.02 5.66 0 6 C-0.33 6.99 -0.66 7.98 -1 9 C-3.64 8.01 -6.28 7.02 -9 6 C-8.34 5.34 -7.68 4.68 -7 4 C-6.01 4.33 -5.02 4.66 -4 5 C-1.36195411 4.60602665 -1.36195411 4.60602665 1 4 C0.34 3.67 -0.32 3.34 -1 3 C-0.67 2.01 -0.34 1.02 0 0 Z " fill="#2F3955" transform="translate(198,257)"/>
<path d="M0 0 C1.5625 1.75 1.5625 1.75 3 4 C2.6875 6.25 2.6875 6.25 2 8 C3.32 8.33 4.64 8.66 6 9 C5.01 9.99 4.02 10.98 3 12 C3 11.34 3 10.68 3 10 C0.69 9.67 -1.62 9.34 -4 9 C-4.33 8.01 -4.66 7.02 -5 6 C-3.68 5.67 -2.36 5.34 -1 5 C-0.67 3.35 -0.34 1.7 0 0 Z " fill="#303956" transform="translate(107,261)"/>
<path d="M0 0 C2.125 0.375 2.125 0.375 4 1 C3.01 1.495 3.01 1.495 2 2 C1.34444881 4.52733235 1.34444881 4.52733235 1 7 C1.99 7.33 2.98 7.66 4 8 C2.35 9.65 0.7 11.3 -1 13 C-1.5745952 9.26513121 -2 5.78706732 -2 2 C-1.34 1.34 -0.68 0.68 0 0 Z " fill="#313859" transform="translate(280,248)"/>
<path d="M0 0 C0.66 0 1.32 0 2 0 C2.66 0.99 3.32 1.98 4 3 C4.66 2.34 5.32 1.68 6 1 C6 3.31 6 5.62 6 8 C1.25 9.125 1.25 9.125 -1 8 C-0.34 7.01 0.32 6.02 1 5 C0.6878236 2.35367713 0.6878236 2.35367713 0 0 Z " fill="#1B2446" transform="translate(108,261)"/>
<path d="M0 0 C2.97 0.33 5.94 0.66 9 1 C9.33 1.99 9.66 2.98 10 4 C8.02 4.33 6.04 4.66 4 5 C4 5.66 4 6.32 4 7 C3.34 7 2.68 7 2 7 C2 6.34 2 5.68 2 5 C1.34 4.34 0.68 3.68 0 3 C0 2.01 0 1.02 0 0 Z " fill="#1B264A" transform="translate(436,249)"/>
<path d="M0 0 C0.66 0.66 1.32 1.32 2 2 C-0.19471406 6.51135667 -2.41173718 8.06273348 -7 10 C-7 7.69 -7 5.38 -7 3 C-6.34 2.67 -5.68 2.34 -5 2 C-4.34 2.66 -3.68 3.32 -3 4 C-2.01 2.68 -1.02 1.36 0 0 Z " fill="#2B3650" transform="translate(458,281)"/>
<path d="M0 0 C1.00289063 0.10183594 2.00578125 0.20367187 3.0390625 0.30859375 C3.80992187 0.39238281 4.58078125 0.47617188 5.375 0.5625 C4.735625 0.85125 4.09625 1.14 3.4375 1.4375 C1.22293921 2.39073451 1.22293921 2.39073451 0.375 4.5625 C-2.6875 5.1875 -2.6875 5.1875 -5.625 5.5625 C-5.295 4.5725 -4.965 3.5825 -4.625 2.5625 C-5.615 1.9025 -6.605 1.2425 -7.625 0.5625 C-4.89657939 -0.80171031 -3.01546682 -0.31557211 0 0 Z " fill="#1D2547" transform="translate(403.625,251.4375)"/>
<path d="M0 0 C0.66 0.66 1.32 1.32 2 2 C1.7578125 5.0390625 1.7578125 5.0390625 1.125 8.625 C0.92132813 9.81351562 0.71765625 11.00203125 0.5078125 12.2265625 C0.34023438 13.14179688 0.17265625 14.05703125 0 15 C-2.08133467 11.877998 -2.2737822 11.06733011 -2.25 7.5 C-2.25773437 6.33984375 -2.25773437 6.33984375 -2.265625 5.15625 C-2 3 -2 3 0 0 Z " fill="#2F3951" transform="translate(272,255)"/>
<path d="M0 0 C2.125 0.9375 2.125 0.9375 4 2 C4 3.32 4 4.64 4 6 C2.02 6.99 0.04 7.98 -2 9 C-2.33 7.68 -2.66 6.36 -3 5 C-2.01 5 -1.02 5 0 5 C-0.66 3.68 -1.32 2.36 -2 1 C-1.34 0.67 -0.68 0.34 0 0 Z " fill="#2A3451" transform="translate(448,269)"/>
<path d="M0 0 C1.32 0.66 2.64 1.32 4 2 C3.125 6.875 3.125 6.875 2 8 C0.33382885 8.04063832 -1.33388095 8.042721 -3 8 C-2.5359375 7.13375 -2.5359375 7.13375 -2.0625 6.25 C-1.07416636 4.15705816 -0.4831387 2.25464725 0 0 Z " fill="#343A51" transform="translate(126,242)"/>
<path d="M0 0 C3.1747379 1.58736895 3.86036878 4.74391081 5 8 C4.67 8.66 4.34 9.32 4 10 C3.34 10 2.68 10 2 10 C2 9.34 2 8.68 2 8 C1.01 7.67 0.02 7.34 -1 7 C-0.67 4.69 -0.34 2.38 0 0 Z " fill="#293454" transform="translate(371,268)"/>
<path d="M0 0 C2.31 0.66 4.62 1.32 7 2 C6.25 3.9375 6.25 3.9375 5 6 C2.875 6.75 2.875 6.75 1 7 C1 6.01 1 5.02 1 4 C-0.65 4 -2.3 4 -4 4 C-2.68 3.34 -1.36 2.68 0 2 C0 1.34 0 0.68 0 0 Z " fill="#1B2545" transform="translate(98,266)"/>
<path d="M0 0 C0.3125 2.3125 0.3125 2.3125 0 5 C-2.3832946 6.81883009 -3.95818337 8 -7 8 C-6.8125 5.6875 -6.8125 5.6875 -6 3 C-1.86206897 0 -1.86206897 0 0 0 Z " fill="#2C3554" transform="translate(301,283)"/>
<path d="M0 0 C0.66 0.33 1.32 0.66 2 1 C2.625 3.0625 2.625 3.0625 3 5 C1.3603125 5.2165625 1.3603125 5.2165625 -0.3125 5.4375 C-3.93122987 5.88288104 -3.93122987 5.88288104 -7 7 C-6.34 5.68 -5.68 4.36 -5 3 C-3.68 3 -2.36 3 -1 3 C-0.67 2.01 -0.34 1.02 0 0 Z " fill="#192447" transform="translate(153,280)"/>
<path d="M0 0 C2.625 0.9375 2.625 0.9375 5 2 C3.84826645 4.46800047 2.95216435 6.04783565 1 8 C-0.5 6.75 -0.5 6.75 -2 5 C-2 3.68 -2 2.36 -2 1 C-1.34 0.67 -0.68 0.34 0 0 Z " fill="#1B2747" transform="translate(453,279)"/>
<path d="M0 0 C0.625 1.875 0.625 1.875 1 4 C-0.33333333 5.33333333 -1.66666667 6.66666667 -3 8 C-3.66 7.34 -4.32 6.68 -5 6 C-4.75 3.4375 -4.75 3.4375 -4 1 C-2 0 -2 0 0 0 Z " fill="#E4E9F0" transform="translate(189,246)"/>
<path d="M0 0 C0.99 1.32 1.98 2.64 3 4 C1.68 5.32 0.36 6.64 -1 8 C-1.99 7.01 -2.98 6.02 -4 5 C-3.34 4.01 -2.68 3.02 -2 2 C-1.34 2 -0.68 2 0 2 C0 1.34 0 0.68 0 0 Z " fill="#F4F3F9" transform="translate(349,249)"/>
<path d="M0 0 C0.99 0.33 1.98 0.66 3 1 C2.34 2.32 1.68 3.64 1 5 C-0.98 5 -2.96 5 -5 5 C-5.33 4.34 -5.66 3.68 -6 3 C-5.195625 2.690625 -4.39125 2.38125 -3.5625 2.0625 C-1.10919595 1.23664655 -1.10919595 1.23664655 0 0 Z " fill="#424965" transform="translate(221,239)"/>
<path d="M0 0 C0.33 0.66 0.66 1.32 1 2 C1.8971875 1.505 1.8971875 1.505 2.8125 1 C5 0 5 0 8 0 C8.33 0.99 8.66 1.98 9 3 C5.38026598 4.31626692 2.90432869 5 -1 5 C-0.67 3.35 -0.34 1.7 0 0 Z " fill="#2F3858" transform="translate(70,203)"/>
<path d="M0 0 C0.33 0.66 0.66 1.32 1 2 C1.99 2 2.98 2 4 2 C4.625 3.875 4.625 3.875 5 6 C4.34 6.66 3.68 7.32 3 8 C1.5 6.625 1.5 6.625 0 5 C0 4.34 0 3.68 0 3 C-0.66 2.67 -1.32 2.34 -2 2 C-1.34 1.34 -0.68 0.68 0 0 Z " fill="#1F2848" transform="translate(61,215)"/>
<path d="M0 0 C-0.66 1.32 -1.32 2.64 -2 4 C-4.97 3.505 -4.97 3.505 -8 3 C-5.53387212 -0.1151089 -3.89156016 -0.31553191 0 0 Z " fill="#313753" transform="translate(407,248)"/>
<path d="M0 0 C0.75 1.75 0.75 1.75 1 4 C-0.9375 6.25 -0.9375 6.25 -3 8 C-4 6 -4 6 -4 3 C-2 1.3125 -2 1.3125 0 0 Z " fill="#DAE0E9" transform="translate(295,275)"/>
<path d="M0 0 C0.86625 0.4640625 0.86625 0.4640625 1.75 0.9375 C3.84294184 1.92583364 5.74535275 2.5168613 8 3 C8 3.66 8 4.32 8 5 C6.5199159 4.88637738 5.04089926 4.75877092 3.5625 4.625 C2.73878906 4.55539062 1.91507812 4.48578125 1.06640625 4.4140625 C0.38449219 4.27742188 -0.29742187 4.14078125 -1 4 C-1.33 3.34 -1.66 2.68 -2 2 C-1.34 2 -0.68 2 0 2 C0 1.34 0 0.68 0 0 Z " fill="#343955" transform="translate(356,275)"/>
<path d="M0 0 C0.33 0.99 0.66 1.98 1 3 C1.66 3 2.32 3 3 3 C3.33 2.01 3.66 1.02 4 0 C4.66 1.32 5.32 2.64 6 4 C5 5 5 5 1.9375 5.0625 C0.4834375 5.0315625 0.4834375 5.0315625 -1 5 C-0.67 3.35 -0.34 1.7 0 0 Z " fill="#1D2747" transform="translate(153,271)"/>
<path d="M0 0 C1.5 1.25 1.5 1.25 3 3 C3 4.32 3 5.64 3 7 C3.99 7.33 4.98 7.66 6 8 C5.67 8.66 5.34 9.32 5 10 C3.02 8.35 1.04 6.7 -1 5 C-0.34 4.67 0.32 4.34 1 4 C0.67 2.68 0.34 1.36 0 0 Z " fill="#2B3751" transform="translate(273,267)"/>
<path d="M0 0 C0.66 0.33 1.32 0.66 2 1 C1.835 1.721875 1.67 2.44375 1.5 3.1875 C1.02412881 5.86427545 0.922557 8.28949487 1 11 C-2 10 -2 10 -2.875 8.3125 C-3.05576685 4.96831319 -1.62387111 2.85801315 0 0 Z " fill="#1C244A" transform="translate(278,250)"/>
<path d="M0 0 C0.66 0.33 1.32 0.66 2 1 C1.67 2.65 1.34 4.3 1 6 C1.66 6.33 2.32 6.66 3 7 C0.625 7.1875 0.625 7.1875 -2 7 C-2.66 6.01 -3.32 5.02 -4 4 C-2.68 4 -1.36 4 0 4 C-0.33 3.01 -0.66 2.02 -1 1 C-0.67 0.67 -0.34 0.34 0 0 Z " fill="#1E2446" transform="translate(124,242)"/>
<path d="M0 0 C1.32 0.66 2.64 1.32 4 2 C3.01 2.495 3.01 2.495 2 3 C2 3.66 2 4.32 2 5 C-0.97 4.505 -0.97 4.505 -4 4 C-2.68 2.68 -1.36 1.36 0 0 Z " fill="#2A3650" transform="translate(86,185)"/>
<path d="M0 0 C0.66 0.66 1.32 1.32 2 2 C1.67 2.33 1.34 2.66 1 3 C1.66 4.32 2.32 5.64 3 7 C-0.65316671 5.75023244 -1.78065836 5.32901247 -4 2 C-2.68 1.34 -1.36 0.68 0 0 Z " fill="#2F3859" transform="translate(71,284)"/>
<path d="M0 0 C0.33 0 0.66 0 1 0 C1 2.97 1 5.94 1 9 C0.01 9 -0.98 9 -2 9 C-3.125 5.25 -3.125 5.25 -2 3 C-1.34 3 -0.68 3 0 3 C0 2.01 0 1.02 0 0 Z " fill="#19254B" transform="translate(377,254)"/>
<path d="M0 0 C0.99 0.66 1.98 1.32 3 2 C1.625 4 1.625 4 0 6 C-0.66 6 -1.32 6 -2 6 C-2.33 6.99 -2.66 7.98 -3 9 C-2.5020163 5.26512223 -2.12508244 3.18762365 0 0 Z " fill="#394059" transform="translate(350,254)"/>
<path d="M0 0 C-1.32 1.32 -2.64 2.64 -4 4 C-5.32 3.01 -6.64 2.02 -8 1 C-4.93251126 -0.86240388 -3.40254489 -1.2151946 0 0 Z " fill="#303552" transform="translate(363,249)"/>
<path d="M0 0 C0.66 0.33 1.32 0.66 2 1 C0.02 1.99 0.02 1.99 -2 3 C-2 3.66 -2 4.32 -2 5 C-3.32 5.33 -4.64 5.66 -6 6 C-6 5.01 -6 4.02 -6 3 C-4.03533587 1.93224776 -2.03144641 0.93446535 0 0 Z " fill="#E7EDF2" transform="translate(455,288)"/>
<path d="M0 0 C1.32 0.33 2.64 0.66 4 1 C4 2.65 4 4.3 4 6 C3.01 6.495 3.01 6.495 2 7 C0 4 0 4 0 0 Z " fill="#E7ECF4" transform="translate(115,230)"/>
<path d="M0 0 C2.475 0.99 2.475 0.99 5 2 C5 2.66 5 3.32 5 4 C3.35 4.33 1.7 4.66 0 5 C-0.5625 3.0625 -0.5625 3.0625 -1 1 C-0.67 0.67 -0.34 0.34 0 0 Z " fill="#30364F" transform="translate(275,281)"/>
<path d="M0 0 C1.65 0 3.3 0 5 0 C5 0.99 5 1.98 5 3 C5.66 3 6.32 3 7 3 C7 3.66 7 4.32 7 5 C3.34683329 3.75023244 2.21934164 3.32901247 0 0 Z " fill="#3A405C" transform="translate(94,270)"/>
<path d="M0 0 C0.33 0 0.66 0 1 0 C1.33 3.63 1.66 7.26 2 11 C1.01 10.67 0.02 10.34 -1 10 C-0.67 6.7 -0.34 3.4 0 0 Z " fill="#41465F" transform="translate(65,243)"/>
<path d="M0 0 C1.32 1.32 2.64 2.64 4 4 C3.01 4.495 3.01 4.495 2 5 C1.67 4.34 1.34 3.68 1 3 C0.01 4.485 0.01 4.485 -1 6 C-1.66 6 -2.32 6 -3 6 C-1.125 1.125 -1.125 1.125 0 0 Z " fill="#333957" transform="translate(178,242)"/>
<path d="M0 0 C0.66 0 1.32 0 2 0 C1.67 1.98 1.34 3.96 1 6 C0.01 6 -0.98 6 -2 6 C-1.125 1.125 -1.125 1.125 0 0 Z " fill="#282D4A" transform="translate(203,242)"/>
<path d="M0 0 C0.33 0.66 0.66 1.32 1 2 C1.66 2 2.32 2 3 2 C2.67 3.32 2.34 4.64 2 6 C1.01 6 0.02 6 -1 6 C-1.33 4.35 -1.66 2.7 -2 1 C-1.34 0.67 -0.68 0.34 0 0 Z " fill="#1B2548" transform="translate(96,257)"/>
<path d="M0 0 C1.485 0.99 1.485 0.99 3 2 C2.01 4.31 1.02 6.62 0 9 C-0.33 9 -0.66 9 -1 9 C-1.125 2.25 -1.125 2.25 0 0 Z " fill="#393D58" transform="translate(93,258)"/>
<path d="M0 0 C1.5 1.375 1.5 1.375 3 3 C3 3.66 3 4.32 3 5 C2.01 5 1.02 5 0 5 C-0.66 5.66 -1.32 6.32 -2 7 C-1.125 1.125 -1.125 1.125 0 0 Z " fill="#373D57" transform="translate(428,255)"/>
</svg>
